<svg xmlns="http://www.w3.org/2000/svg" xmlns:xlink="http://www.w3.org/1999/xlink" width="634" zoomAndPan="magnify" viewBox="0 0 475.5 692.249983" height="923" preserveAspectRatio="xMidYMid meet" version="1.0"><defs><filter x="0%" y="0%" width="100%" height="100%" id="fb59ecf9d0"><feColorMatrix values="0 0 0 0 1 0 0 0 0 1 0 0 0 0 1 0 0 0 1 0" color-interpolation-filters="sRGB"/></filter><mask id="e5dc11f693"><g filter="url(#fb59ecf9d0)"><rect x="-47.55" width="570.6" fill="#000000" y="-69.224998" height="830.69998" fill-opacity="0.0784"/></g></mask><clipPath id="b0ed5cd8e7"><path d="M 0.5 174 L 49 174 L 49 224 L 0.5 224 Z M 0.5 174 " clip-rule="nonzero"/></clipPath><clipPath id="2375a4e0fb"><path d="M 168 222 L 216.492188 222 L 216.492188 271 L 168 271 Z M 168 222 " clip-rule="nonzero"/></clipPath><clipPath id="c57e78a619"><path d="M 120 293 L 153 293 L 153 326.484375 L 120 326.484375 Z M 120 293 " clip-rule="nonzero"/></clipPath><clipPath id="a96720d641"><rect x="0" width="218" y="0" height="327"/></clipPath><mask id="d44712326d"><g filter="url(#fb59ecf9d0)"><rect x="-47.55" width="570.6" fill="#000000" y="-69.224998" height="830.69998" fill-opacity="0.0784"/></g></mask><clipPath id="87a40dcfef"><path d="M 103 0.488281 L 152 0.488281 L 152 49 L 103 49 Z M 103 0.488281 " clip-rule="nonzero"/></clipPath><clipPath id="f50e5baef6"><path d="M 253 11 L 325.515625 11 L 325.515625 84 L 253 84 Z M 253 11 " clip-rule="nonzero"/></clipPath><clipPath id="1cee971d21"><path d="M 55 168 L 105 168 L 105 216.480469 L 55 216.480469 Z M 55 168 " clip-rule="nonzero"/></clipPath><clipPath id="ca27335223"><path d="M 0.046875 120 L 33 120 L 33 153 L 0.046875 153 Z M 0.046875 120 " clip-rule="nonzero"/></clipPath><clipPath id="3a8fe920a3"><rect x="0" width="327" y="0" height="218"/></clipPath></defs><g mask="url(#e5dc11f693)"><g transform="matrix(1, 0, 0, 1, 184, 74)"><g clip-path="url(#a96720d641)"><g clip-path="url(#b0ed5cd8e7)"><path fill="#ffffff" d="M 48.75 186.324219 L 48.75 211.875 C 48.75 218.136719 43.65625 223.230469 37.394531 223.230469 L 11.855469 223.230469 C 5.59375 223.230469 0.5 218.136719 0.5 211.875 L 0.5 186.324219 C 0.5 180.0625 5.59375 174.96875 11.855469 174.96875 L 37.402344 174.96875 C 43.65625 174.976562 48.75 180.0625 48.75 186.324219 Z M 3.09375 211.875 C 3.09375 216.703125 7.015625 220.625 11.847656 220.625 L 37.394531 220.625 C 42.222656 220.625 46.148438 216.703125 46.148438 211.875 L 46.148438 186.324219 C 46.148438 181.496094 42.222656 177.570312 37.394531 177.570312 L 11.855469 177.570312 C 7.027344 177.570312 3.101562 181.496094 3.101562 186.324219 L 3.101562 211.875 Z M 3.09375 211.875 " fill-opacity="1" fill-rule="nonzero"/></g><path fill="#ffffff" d="M 183.140625 102.15625 L 183.140625 149.355469 C 183.140625 160.3125 174.222656 169.226562 163.269531 169.226562 L 116.070312 169.226562 C 105.117188 169.226562 96.203125 160.3125 96.203125 149.355469 L 96.203125 102.15625 C 96.203125 91.199219 105.117188 82.285156 116.070312 82.285156 L 163.269531 82.285156 C 174.222656 82.285156 183.140625 91.199219 183.140625 102.15625 Z M 98.796875 149.355469 C 98.796875 158.878906 106.542969 166.632812 116.070312 166.632812 L 163.269531 166.632812 C 172.792969 166.632812 180.546875 158.886719 180.546875 149.355469 L 180.546875 102.15625 C 180.546875 92.632812 172.800781 84.878906 163.269531 84.878906 L 116.070312 84.878906 C 106.550781 84.878906 98.796875 92.625 98.796875 102.15625 Z M 98.796875 149.355469 " fill-opacity="1" fill-rule="nonzero"/><path fill="#ffffff" d="M 83.441406 17.714844 L 83.441406 56.546875 C 83.441406 65.683594 76.003906 73.125 66.867188 73.125 L 28.035156 73.125 C 18.902344 73.125 11.460938 65.683594 11.460938 56.546875 L 11.460938 17.714844 C 11.460938 8.578125 18.902344 1.136719 28.035156 1.136719 L 66.867188 1.136719 C 76.003906 1.136719 83.441406 8.578125 83.441406 17.714844 Z M 14.054688 56.546875 C 14.054688 64.257812 20.324219 70.53125 28.027344 70.53125 L 66.867188 70.53125 C 74.578125 70.53125 80.847656 64.257812 80.847656 56.546875 L 80.847656 17.714844 C 80.847656 10 74.578125 3.730469 66.867188 3.730469 L 28.035156 3.730469 C 20.332031 3.730469 14.0625 10 14.0625 17.714844 L 14.0625 56.546875 Z M 14.054688 56.546875 " fill-opacity="1" fill-rule="nonzero"/><path fill="#ffffff" d="M 128.246094 200.382812 L 128.246094 217.101562 C 128.246094 221.445312 124.714844 224.976562 120.371094 224.976562 L 103.652344 224.976562 C 99.308594 224.976562 95.777344 221.445312 95.777344 217.101562 L 95.777344 200.382812 C 95.777344 196.039062 99.308594 192.507812 103.652344 192.507812 L 120.371094 192.507812 C 124.714844 192.507812 128.246094 196.039062 128.246094 200.382812 Z M 98.378906 217.101562 C 98.378906 220.011719 100.75 222.382812 103.660156 222.382812 L 120.378906 222.382812 C 123.289062 222.382812 125.660156 220.011719 125.660156 217.101562 L 125.660156 200.382812 C 125.660156 197.472656 123.289062 195.101562 120.378906 195.101562 L 103.660156 195.101562 C 100.75 195.101562 98.378906 197.472656 98.378906 200.382812 Z M 98.378906 217.101562 " fill-opacity="1" fill-rule="nonzero"/><g clip-path="url(#2375a4e0fb)"><path fill="#ffffff" d="M 216.484375 233.730469 L 216.484375 259.28125 C 216.484375 265.542969 211.390625 270.636719 205.128906 270.636719 L 179.582031 270.636719 C 173.320312 270.636719 168.226562 265.542969 168.226562 259.28125 L 168.226562 233.730469 C 168.226562 227.46875 173.320312 222.375 179.582031 222.375 L 205.128906 222.375 C 211.390625 222.382812 216.484375 227.46875 216.484375 233.730469 Z M 170.828125 259.28125 C 170.828125 264.109375 174.753906 268.035156 179.582031 268.035156 L 205.128906 268.035156 C 209.957031 268.035156 213.882812 264.109375 213.882812 259.28125 L 213.882812 233.730469 C 213.882812 228.902344 209.957031 224.976562 205.128906 224.976562 L 179.582031 224.976562 C 174.753906 224.976562 170.828125 228.902344 170.828125 233.730469 Z M 170.828125 259.28125 " fill-opacity="1" fill-rule="nonzero"/></g><g clip-path="url(#c57e78a619)"><path fill="#ffffff" d="M 152.890625 301.792969 L 152.890625 318.511719 C 152.890625 322.855469 149.359375 326.386719 145.015625 326.386719 L 128.296875 326.386719 C 123.953125 326.386719 120.421875 322.855469 120.421875 318.511719 L 120.421875 301.792969 C 120.421875 297.449219 123.953125 293.917969 128.296875 293.917969 L 145.015625 293.917969 C 149.359375 293.917969 152.890625 297.449219 152.890625 301.792969 Z M 123.015625 318.511719 C 123.015625 321.421875 125.386719 323.792969 128.296875 323.792969 L 145.015625 323.792969 C 147.925781 323.792969 150.296875 321.421875 150.296875 318.511719 L 150.296875 301.792969 C 150.296875 298.882812 147.925781 296.511719 145.015625 296.511719 L 128.296875 296.511719 C 125.386719 296.511719 123.015625 298.882812 123.015625 301.792969 Z M 123.015625 318.511719 " fill-opacity="1" fill-rule="nonzero"/></g></g></g></g><g mask="url(#d44712326d)"><g transform="matrix(1, 0, 0, 1, 75, 400)"><g clip-path="url(#3a8fe920a3)"><g clip-path="url(#87a40dcfef)"><path fill="#ffffff" d="M 140.1875 48.734375 L 114.636719 48.734375 C 108.375 48.734375 103.28125 43.644531 103.28125 37.382812 L 103.28125 11.839844 C 103.28125 5.578125 108.375 0.488281 114.636719 0.488281 L 140.1875 0.488281 C 146.449219 0.488281 151.542969 5.578125 151.542969 11.839844 L 151.542969 37.390625 C 151.535156 43.644531 146.449219 48.734375 140.1875 48.734375 Z M 114.636719 3.082031 C 109.808594 3.082031 105.886719 7.003906 105.886719 11.832031 L 105.886719 37.382812 C 105.886719 42.210938 109.808594 46.132812 114.636719 46.132812 L 140.1875 46.132812 C 145.015625 46.132812 148.941406 42.210938 148.941406 37.382812 L 148.941406 11.839844 C 148.941406 7.011719 145.015625 3.089844 140.1875 3.089844 L 114.636719 3.089844 Z M 114.636719 3.082031 " fill-opacity="1" fill-rule="nonzero"/></g><path fill="#ffffff" d="M 224.355469 183.125 L 177.152344 183.125 C 166.199219 183.125 157.285156 174.210938 157.285156 163.257812 L 157.285156 116.058594 C 157.285156 105.105469 166.199219 96.191406 177.152344 96.191406 L 224.355469 96.191406 C 235.3125 96.191406 244.226562 105.105469 244.226562 116.058594 L 244.226562 163.257812 C 244.226562 174.210938 235.3125 183.125 224.355469 183.125 Z M 177.152344 98.785156 C 167.632812 98.785156 159.878906 106.53125 159.878906 116.058594 L 159.878906 163.257812 C 159.878906 172.777344 167.625 180.53125 177.152344 180.53125 L 224.355469 180.53125 C 233.878906 180.53125 241.632812 172.785156 241.632812 163.257812 L 241.632812 116.058594 C 241.632812 106.539062 233.886719 98.785156 224.355469 98.785156 Z M 177.152344 98.785156 " fill-opacity="1" fill-rule="nonzero"/><g clip-path="url(#f50e5baef6)"><path fill="#ffffff" d="M 308.796875 83.429688 L 269.964844 83.429688 C 260.828125 83.429688 253.386719 75.992188 253.386719 66.855469 L 253.386719 28.023438 C 253.386719 18.886719 260.828125 11.449219 269.964844 11.449219 L 308.796875 11.449219 C 317.933594 11.449219 325.375 18.886719 325.375 28.023438 L 325.375 66.855469 C 325.375 75.992188 317.933594 83.429688 308.796875 83.429688 Z M 269.964844 14.042969 C 262.253906 14.042969 255.980469 20.3125 255.980469 28.015625 L 255.980469 66.855469 C 255.980469 74.566406 262.253906 80.835938 269.964844 80.835938 L 308.796875 80.835938 C 316.511719 80.835938 322.78125 74.566406 322.78125 66.855469 L 322.78125 28.023438 C 322.78125 20.320312 316.511719 14.050781 308.796875 14.050781 L 269.964844 14.050781 Z M 269.964844 14.042969 " fill-opacity="1" fill-rule="nonzero"/></g><path fill="#ffffff" d="M 126.128906 128.230469 L 109.40625 128.230469 C 105.066406 128.230469 101.535156 124.699219 101.535156 120.359375 L 101.535156 103.636719 C 101.535156 99.296875 105.066406 95.765625 109.40625 95.765625 L 126.128906 95.765625 C 130.472656 95.765625 134.003906 99.296875 134.003906 103.636719 L 134.003906 120.359375 C 134.003906 124.699219 130.472656 128.230469 126.128906 128.230469 Z M 109.410156 98.367188 C 106.5 98.367188 104.128906 100.738281 104.128906 103.648438 L 104.128906 120.367188 C 104.128906 123.277344 106.5 125.648438 109.410156 125.648438 L 126.128906 125.648438 C 129.039062 125.648438 131.410156 123.277344 131.410156 120.367188 L 131.410156 103.648438 C 131.410156 100.738281 129.039062 98.367188 126.128906 98.367188 Z M 109.410156 98.367188 " fill-opacity="1" fill-rule="nonzero"/><g clip-path="url(#1cee971d21)"><path fill="#ffffff" d="M 92.78125 216.472656 L 67.230469 216.472656 C 60.96875 216.472656 55.875 211.378906 55.875 205.117188 L 55.875 179.570312 C 55.875 173.308594 60.96875 168.214844 67.230469 168.214844 L 92.78125 168.214844 C 99.042969 168.214844 104.136719 173.308594 104.136719 179.570312 L 104.136719 205.117188 C 104.128906 211.378906 99.042969 216.472656 92.78125 216.472656 Z M 67.230469 170.816406 C 62.402344 170.816406 58.476562 174.742188 58.476562 179.570312 L 58.476562 205.117188 C 58.476562 209.945312 62.402344 213.871094 67.230469 213.871094 L 92.78125 213.871094 C 97.609375 213.871094 101.535156 209.945312 101.535156 205.117188 L 101.535156 179.570312 C 101.535156 174.742188 97.609375 170.816406 92.78125 170.816406 Z M 67.230469 170.816406 " fill-opacity="1" fill-rule="nonzero"/></g><g clip-path="url(#ca27335223)"><path fill="#ffffff" d="M 24.71875 152.875 L 8 152.875 C 3.65625 152.875 0.125 149.34375 0.125 145.003906 L 0.125 128.28125 C 0.125 123.941406 3.65625 120.410156 8 120.410156 L 24.71875 120.410156 C 29.0625 120.410156 32.59375 123.941406 32.59375 128.28125 L 32.59375 145.003906 C 32.59375 149.34375 29.0625 152.875 24.71875 152.875 Z M 8 123.003906 C 5.089844 123.003906 2.71875 125.375 2.71875 128.28125 L 2.71875 145.003906 C 2.71875 147.910156 5.089844 150.285156 8 150.285156 L 24.71875 150.285156 C 27.628906 150.285156 30 147.910156 30 145.003906 L 30 128.28125 C 30 125.375 27.628906 123.003906 24.71875 123.003906 Z M 8 123.003906 " fill-opacity="1" fill-rule="nonzero"/></g></g></g></g></svg>